<svg xmlns="http://www.w3.org/2000/svg" viewBox="0 0 64 64"><defs><style>.cls-1{fill:#0072ff;}</style></defs><title>Menu Selection</title><g id="Layer_2" data-name="Layer 2"><path class="cls-1" d="M54.41,4H9.59A5.59,5.59,0,0,0,4,9.59V54.41A5.59,5.59,0,0,0,9.59,60H54.41A5.59,5.59,0,0,0,60,54.41V9.59A5.59,5.59,0,0,0,54.41,4ZM22,50a4,4,0,0,1-4,4H14a4,4,0,0,1-4-4V46a4,4,0,0,1,4-4h4a4,4,0,0,1,4,4Zm0-16a4,4,0,0,1-4,4H14a4,4,0,0,1-4-4V30a4,4,0,0,1,4-4h4a4,4,0,0,1,4,4Zm0-16a4,4,0,0,1-4,4H14a4,4,0,0,1-4-4V14a4,4,0,0,1,4-4h4a4,4,0,0,1,4,4ZM38,34a4,4,0,0,1-4,4H30a4,4,0,0,1-4-4V30a4,4,0,0,1,4-4h4a4,4,0,0,1,4,4Zm0-16a4,4,0,0,1-4,4H30a4,4,0,0,1-4-4V14a4,4,0,0,1,4-4h4a4,4,0,0,1,4,4ZM54,34a4,4,0,0,1-4,4H46a4,4,0,0,1-4-4V30a4,4,0,0,1,4-4h4a4,4,0,0,1,4,4Zm0-16a4,4,0,0,1-4,4H46a4,4,0,0,1-4-4V14a4,4,0,0,1,4-4h4a4,4,0,0,1,4,4Z"/></g></svg>