<svg id="Layer_1" data-name="Layer 1" xmlns="http://www.w3.org/2000/svg" viewBox="0 0 128 128"><title>MUSICAL NOTE</title><path d="M42.685,74.689a1.75,1.75,0,0,1-1.75-1.75V41.772a1.75,1.75,0,1,1,3.5,0V72.939A1.75,1.75,0,0,1,42.685,74.689Z" style="fill:#1ba4fc"/><ellipse cx="32.927" cy="72.939" rx="11.508" ry="6.935" style="fill:#1ba4fc"/><polygon points="65.049 49.816 40.935 43.776 40.935 29.188 65.049 35.227 65.049 49.816" style="fill:#2ec3fc"/><ellipse cx="98.573" cy="44.335" rx="11.508" ry="6.935" style="fill:#f9d12f"/><path d="M108.331,46.085a1.75,1.75,0,0,1-1.75-1.75V9.5a1.75,1.75,0,1,1,3.5,0V44.335A1.75,1.75,0,0,1,108.331,46.085Z" style="fill:#f9d12f"/><ellipse cx="55.669" cy="111.565" rx="11.508" ry="6.935" style="fill:#ec4d85"/><path d="M65.428,113.315a1.75,1.75,0,0,1-1.75-1.75V80.4a1.75,1.75,0,1,1,3.5,0v31.167A1.75,1.75,0,0,1,65.428,113.315Z" style="fill:#ec4d85"/><ellipse cx="86.573" cy="111.565" rx="11.508" ry="6.935" style="fill:#ec4d85"/><path d="M96.331,113.315a1.75,1.75,0,0,1-1.75-1.75V80.4a1.75,1.75,0,1,1,3.5,0v31.167A1.75,1.75,0,0,1,96.331,113.315Z" style="fill:#ec4d85"/><polygon points="65.049 35.227 65.049 49.816 61.558 48.942 61.558 34.353 65.049 35.227" style="fill:#1ba4fc"/><polygon points="98.081 88.813 63.678 82.5 63.678 67.911 98.081 74.224 98.081 88.813" style="fill:#fd748c"/><polygon points="94.581 88.17 94.581 73.581 98.081 74.224 98.081 88.813 94.581 88.17" style="fill:#ec4d85"/></svg>