<svg xmlns="http://www.w3.org/2000/svg" viewBox="0 0 64 64"><defs><style>.cls-1{fill:#0072ff;}</style></defs><title>Reepat None</title><g id="Layer_2" data-name="Layer 2"><path class="cls-1" d="M33.79,4.06A28,28,0,0,0,4,30.71a.67.67,0,0,0,1,.57l9.19-6.13A.63.63,0,0,0,13.91,24H11.82a.21.21,0,0,1-.19-.29A22,22,0,1,1,34.51,53.86,2.77,2.77,0,0,0,32,56.59v.51a2.76,2.76,0,0,0,3.08,2.73A28,28,0,0,0,33.79,4.06Z"/><path class="cls-1" d="M17.13,60A6.85,6.85,0,0,0,24,53.14V42.86A6.85,6.85,0,0,0,17.13,36H14.88A6.85,6.85,0,0,0,8,42.86V53.14A6.85,6.85,0,0,0,14.88,60ZM12,52V44a4,4,0,0,1,4-4h0a4,4,0,0,1,4,4v8a4,4,0,0,1-4,4h0A4,4,0,0,1,12,52Z"/></g></svg>